<?xml version="1.0" encoding="utf-8"?>
<!-- Generator: Adobe Illustrator 23.0.6, SVG Export Plug-In . SVG Version: 6.00 Build 0)  -->
<svg version="1.1" id="Capa_1" xmlns="http://www.w3.org/2000/svg" xmlns:xlink="http://www.w3.org/1999/xlink" x="0px" y="0px"
	 viewBox="0 0 758 189.9" style="enable-background:new 0 0 758 189.9;" xml:space="preserve">
<style type="text/css">
	.st0{clip-path:url(#SVGID_2_);fill:#86AA38;}
	.st1{clip-path:url(#SVGID_2_);}
</style>
<g>
	<defs>
		<rect id="SVGID_1_" x="-115" y="-114.8" width="985.3" height="415.7"/>
	</defs>
	<clipPath id="SVGID_2_">
		<use xlink:href="#SVGID_1_"  style="overflow:visible;"/>
	</clipPath>
	<path class="st0" d="M0,0h23.9c0.1,0,0.2,0.1,0.2,0.2v23.9c0,0.1-0.1,0.2-0.2,0.2H0c-0.1,0-0.2-0.1-0.2-0.2V0.2C-0.2,0.1-0.1,0,0,0
		"/>
	<path class="st1" d="M-0.2,186V42.9c0-0.1,0.1-0.2,0.2-0.2h23.9c0.1,0,0.2,0.1,0.2,0.2V186c0,0.1-0.1,0.2-0.2,0.2H0
		C-0.1,186.2-0.2,186.1-0.2,186"/>
	<path class="st1" d="M208.3,161.9h74.3c0.1,0,0.2,0.1,0.2,0.2V186c0,0.1-0.1,0.2-0.2,0.2h-74.3c-8.1,0-15-2.8-20.7-8.5
		c-5.7-5.7-8.5-12.6-8.5-20.7v-85c0-8.1,2.8-15,8.5-20.7c5.7-5.7,12.6-8.5,20.7-8.5h74.3c0.1,0,0.2,0.1,0.2,0.2v23.9
		c0,0.1-0.1,0.2-0.2,0.2h-74.3c-1.3,0-2.5,0.5-3.5,1.5c-1,1-1.5,2.1-1.5,3.5v85c0,1.3,0.5,2.5,1.5,3.5
		C205.8,161.4,206.9,161.9,208.3,161.9"/>
	<path class="st1" d="M330,161.9h74.3c0.1,0,0.2,0.1,0.2,0.2V186c0,0.1-0.1,0.2-0.2,0.2H330c-8.1,0-15-2.8-20.7-8.5
		c-5.7-5.7-8.5-12.6-8.5-20.7v-85c0-8.1,2.8-15,8.5-20.7c5.7-5.7,12.6-8.5,20.7-8.5h74.3c0.1,0,0.2,0.1,0.2,0.2v23.9
		c0,0.1-0.1,0.2-0.2,0.2H330c-1.3,0-2.5,0.5-3.5,1.5c-1,1-1.5,2.1-1.5,3.5v85c0,1.3,0.5,2.5,1.5,3.5
		C327.5,161.4,328.6,161.9,330,161.9"/>
	<path class="st1" d="M128.2,42.7c8.1,0,15,2.8,20.7,8.5c5.7,5.7,8.5,12.6,8.5,20.7v114c0,0.1-0.1,0.2-0.2,0.2H71.9
		c-8.1,0-15-2.8-20.7-8.5c-5.7-5.7-8.5-12.6-8.5-20.7v-31.6c0-15.5,12.5-28,28-28h62.3c0.1,0,0.2-0.1,0.2-0.2V71.9
		c0-1.3-0.5-2.5-1.5-3.5c-1-1-2.1-1.5-3.5-1.5H53.8c-0.1,0-0.2-0.1-0.2-0.2V42.9c0-0.1,0.1-0.2,0.2-0.2H128.2z M132.9,121.6H71.7
		c-2.7,0-4.8,2.2-4.8,4.8v30.5c0,1.3,0.5,2.5,1.5,3.5c1,1,2.1,1.5,3.5,1.5h61.1c0.1,0,0.2-0.1,0.2-0.2v-39.9
		C133.1,121.7,133,121.6,132.9,121.6"/>
	<polygon class="st0" points="428.5,82.3 428.5,42.6 454.3,42.6 454.3,50.8 437.7,50.8 437.7,58.2 451.8,58.2 451.8,66.3 
		437.7,66.3 437.7,74.2 454.3,74.2 454.3,82.3 	"/>
	<polygon class="st0" points="478.4,82.3 473.3,73.6 472.9,73.6 467.9,82.3 459.1,82.3 468,67.3 459.4,52.9 468.7,52.9 473.5,61.1 
		473.8,61.1 478.5,52.9 487.3,52.9 478.7,67.3 487.7,82.3 	"/>
	<path class="st0" d="M492.9,52.9h8.1l0.2,3.5h0.5c0.7-1.5,1.8-2.5,3.1-3.1c1.3-0.6,2.8-0.9,4.5-0.9c2.2,0,3.9,0.4,5.2,1.3
		c1.3,0.9,2.2,2.4,2.8,4.6c0.6,2.2,0.9,5.2,0.9,9.1c0,4-0.3,7-0.9,9.2c-0.6,2.2-1.5,3.7-2.7,4.6s-3,1.4-5.1,1.4
		c-1.8,0-3.3-0.2-4.5-0.7c-1.2-0.5-2.2-1.4-3-2.8h-0.4v14.6h-8.5V52.9z M508.3,74.5c0.5-0.3,0.9-0.9,1-1.8c0.2-0.9,0.2-2.6,0.2-5
		c0-2.4-0.1-4.1-0.2-5c-0.2-0.9-0.5-1.6-1-1.8c-0.5-0.3-1.5-0.4-2.9-0.4c-1.1,0-1.8,0.1-2.4,0.4c-0.5,0.3-0.9,0.7-1.2,1.4
		c-0.2,0.5-0.4,1.2-0.4,2.1c-0.1,0.8-0.1,2-0.1,3.4c0,1.5,0,2.6,0.1,3.4c0.1,0.8,0.2,1.5,0.4,1.9c0.2,0.7,0.6,1.2,1.2,1.5
		c0.5,0.3,1.3,0.4,2.4,0.4C506.9,74.9,507.8,74.7,508.3,74.5"/>
	<path class="st0" d="M548.6,69.9h-16.1c0,1.8,0.1,3.1,0.4,3.9c0.3,0.7,0.8,1.2,1.7,1.4c0.9,0.2,2.5,0.3,4.8,0.3
		c2.5,0,5.2-0.2,8.1-0.5v6.6c-1.1,0.3-2.6,0.6-4.5,0.7c-1.9,0.2-3.7,0.3-5.6,0.3c-4.1,0-7.1-0.5-9-1.5c-1.9-1-3.1-2.5-3.6-4.5
		c-0.5-2-0.8-5.1-0.8-9.2c0-4,0.3-7.1,0.8-9.1c0.5-2,1.7-3.6,3.5-4.6c1.8-1,4.6-1.5,8.4-1.5c3.8,0,6.5,0.5,8.2,1.5
		c1.7,1,2.7,2.4,3.1,4.4c0.4,1.9,0.6,5.1,0.6,9.4V69.9z M533.9,59.6c-0.6,0.3-0.9,0.8-1.1,1.6c-0.2,0.8-0.3,2.1-0.3,3.9h8.1
		c0-1.8-0.1-3.2-0.3-4c-0.2-0.8-0.6-1.3-1.1-1.6c-0.5-0.2-1.4-0.4-2.6-0.4C535.4,59.2,534.5,59.3,533.9,59.6"/>
	<path class="st0" d="M555.6,52.9h8.1l0.2,5h0.5c0.7-2,1.7-3.5,3-4.3c1.3-0.8,3.1-1.2,5.4-1.2v8.8c-2.3,0-4,0.3-5.3,0.9
		c-1.2,0.6-2.1,1.6-2.6,3.1c-0.5,1.5-0.8,3.5-0.8,6.2v10.9h-8.5V52.9z"/>
	<path class="st0" d="M606.9,81.5c-1.8-0.9-2.9-2.3-3.4-4.3c-0.5-2-0.7-5.2-0.7-9.6c0-4.5,0.2-7.7,0.7-9.6c0.5-2,1.6-3.4,3.4-4.2
		c1.8-0.9,4.6-1.3,8.7-1.3c4,0,6.9,0.4,8.7,1.3c1.8,0.9,2.9,2.3,3.4,4.2c0.5,2,0.7,5.2,0.7,9.6c0,4.4-0.2,7.6-0.7,9.6
		c-0.5,2-1.6,3.4-3.4,4.3c-1.8,0.9-4.6,1.3-8.7,1.3C611.5,82.8,608.6,82.3,606.9,81.5 M618.6,75.1c0.5-0.3,0.9-1,1-1.9
		c0.1-1,0.2-2.8,0.2-5.5c0-2.8-0.1-4.6-0.2-5.6c-0.1-1-0.5-1.6-1-1.9c-0.5-0.3-1.6-0.5-3-0.5c-1.5,0-2.5,0.2-3,0.5
		c-0.5,0.3-0.9,0.9-1,1.9c-0.1,1-0.2,2.8-0.2,5.6c0,2.7,0.1,4.6,0.2,5.5c0.1,1,0.5,1.6,1,1.9c0.5,0.3,1.6,0.5,3,0.5
		C617,75.6,618,75.4,618.6,75.1"/>
	<path class="st0" d="M639.4,82.5c-2-0.2-3.8-0.3-5.3-0.6v-6.7c3,0.3,5.8,0.5,8.3,0.5c1.7,0,2.9-0.1,3.6-0.2
		c0.7-0.1,1.2-0.3,1.3-0.6c0.2-0.3,0.3-0.8,0.3-1.5c0-0.6-0.1-1-0.2-1.2c-0.1-0.2-0.4-0.4-0.7-0.5c-0.4-0.1-1-0.2-1.8-0.3l-6.3-0.9
		c-2.1-0.3-3.5-1.2-4.3-2.6c-0.7-1.4-1.1-3.6-1.1-6.5c0-2.6,0.5-4.5,1.4-5.8c0.9-1.3,2.2-2.1,3.7-2.5c1.6-0.4,3.6-0.6,6.1-0.6
		c1.7,0,3.5,0.1,5.3,0.2c1.8,0.2,3.2,0.4,4.3,0.6v6.6c-2.9-0.3-5.5-0.5-7.8-0.5c-1.5,0-2.7,0-3.3,0.1c-0.7,0.1-1.1,0.3-1.4,0.5
		c-0.3,0.3-0.4,0.8-0.4,1.4c0,0.6,0,1,0.1,1.2c0.1,0.2,0.3,0.4,0.6,0.5c0.3,0.1,0.9,0.2,1.7,0.3l6.2,0.8c1.4,0.2,2.4,0.5,3.2,1
		c0.8,0.5,1.4,1.3,1.8,2.5c0.4,1.2,0.7,3,0.7,5.3c0,2.7-0.4,4.8-1.3,6.2c-0.9,1.4-2,2.3-3.5,2.7c-1.5,0.4-3.4,0.6-5.8,0.6
		C643.3,82.8,641.5,82.7,639.4,82.5"/>
	<path class="st1" d="M431.1,185.3c-1.8-0.9-2.9-2.3-3.4-4.3c-0.5-2-0.7-5.2-0.7-9.6c0-4.5,0.2-7.7,0.7-9.6c0.5-2,1.6-3.4,3.4-4.2
		c1.8-0.9,4.6-1.3,8.7-1.3c4,0,6.9,0.4,8.7,1.3c1.8,0.9,2.9,2.3,3.4,4.2c0.5,2,0.7,5.2,0.7,9.6c0,4.4-0.2,7.6-0.7,9.6
		c-0.5,2-1.6,3.4-3.4,4.3c-1.8,0.9-4.6,1.3-8.7,1.3C435.7,186.6,432.8,186.2,431.1,185.3 M442.8,178.9c0.5-0.3,0.9-1,1-1.9
		c0.1-1,0.2-2.8,0.2-5.5c0-2.8-0.1-4.6-0.2-5.6c-0.1-1-0.5-1.6-1-1.9c-0.5-0.3-1.6-0.5-3-0.5c-1.5,0-2.5,0.2-3,0.5
		c-0.5,0.3-0.9,0.9-1,1.9c-0.1,1-0.2,2.8-0.2,5.6c0,2.7,0.1,4.6,0.2,5.5c0.1,1,0.5,1.6,1,1.9c0.5,0.3,1.6,0.5,3,0.5
		C441.2,179.4,442.2,179.3,442.8,178.9"/>
	<path class="st1" d="M475.5,170.7c0-2.2-0.1-3.6-0.2-4.5c-0.2-0.8-0.5-1.4-0.9-1.6c-0.5-0.2-1.3-0.3-2.5-0.3
		c-1.2,0-2.1,0.2-2.6,0.5c-0.5,0.4-0.9,1-1.1,1.9c-0.2,0.9-0.3,2.3-0.3,4.2v15.3h-8.5v-29.4h8.1l0.2,3.5h0.5c1.4-2.7,4-4,7.8-4
		c2.3,0,4,0.4,5.2,1.3c1.2,0.9,2,2.1,2.4,3.7c0.4,1.6,0.6,3.8,0.6,6.5v18.4h-8.5V170.7z"/>
	<rect x="491.7" y="143.3" class="st1" width="8.6" height="42.8"/>
	<path class="st1" d="M508.1,143.3h8.7v7.6h-8.7V143.3z M508.1,156.8h8.6v29.4h-8.6V156.8z"/>
	<path class="st1" d="M540.7,170.7c0-2.2-0.1-3.6-0.2-4.5c-0.2-0.8-0.5-1.4-0.9-1.6c-0.5-0.2-1.3-0.3-2.5-0.3
		c-1.2,0-2.1,0.2-2.6,0.5c-0.5,0.4-0.9,1-1.1,1.9c-0.2,0.9-0.3,2.3-0.3,4.2v15.3h-8.5v-29.4h8.1l0.2,3.5h0.5c1.4-2.7,4-4,7.8-4
		c2.3,0,4,0.4,5.2,1.3c1.2,0.9,2,2.1,2.4,3.7c0.4,1.6,0.6,3.8,0.6,6.5v18.4h-8.5V170.7z"/>
	<path class="st1" d="M580.6,173.8h-16.1c0,1.8,0.1,3.1,0.4,3.9c0.3,0.7,0.8,1.2,1.7,1.4c0.9,0.2,2.5,0.3,4.8,0.3
		c2.5,0,5.2-0.2,8.1-0.5v6.6c-1.1,0.3-2.6,0.6-4.5,0.7c-1.9,0.2-3.7,0.3-5.6,0.3c-4.1,0-7.1-0.5-9-1.5c-1.9-1-3.1-2.5-3.6-4.5
		c-0.5-2-0.8-5.1-0.8-9.2c0-4,0.3-7.1,0.8-9.1c0.5-2,1.7-3.6,3.5-4.6c1.8-1,4.6-1.5,8.4-1.5c3.8,0,6.5,0.5,8.2,1.5
		c1.7,1,2.7,2.4,3.1,4.4c0.4,1.9,0.6,5.1,0.6,9.4V173.8z M565.9,163.5c-0.6,0.3-0.9,0.8-1.1,1.6c-0.2,0.8-0.3,2.1-0.3,3.9h8.1
		c0-1.8-0.1-3.2-0.3-4c-0.2-0.8-0.6-1.3-1.1-1.6c-0.5-0.2-1.4-0.4-2.6-0.4C567.3,163,566.4,163.2,565.9,163.5"/>
	<path class="st0" d="M451.5,121.1l-16.1-0.1c0,1.8,0.1,3.1,0.4,3.9c0.3,0.7,0.8,1.2,1.7,1.4c0.9,0.2,2.5,0.4,4.8,0.4
		c2.5,0,5.2-0.1,8.1-0.4l0,6.6c-1.1,0.3-2.6,0.5-4.5,0.7c-1.9,0.2-3.7,0.3-5.6,0.3c-4.1,0-7.1-0.5-9-1.5c-1.9-1-3.1-2.5-3.6-4.5
		c-0.5-2-0.8-5.1-0.8-9.2c0-4,0.3-7.1,0.8-9.1c0.5-2,1.7-3.6,3.5-4.6c1.8-1,4.6-1.5,8.4-1.5c3.8,0,6.5,0.5,8.2,1.5
		c1.7,1,2.7,2.5,3.1,4.4c0.4,1.9,0.6,5.1,0.6,9.4L451.5,121.1z M436.8,110.7c-0.6,0.3-0.9,0.8-1.1,1.6c-0.2,0.8-0.3,2.1-0.3,3.9
		l8.1,0c0-1.8-0.1-3.2-0.3-4s-0.6-1.3-1.1-1.6c-0.5-0.3-1.4-0.4-2.6-0.4C438.3,110.3,437.4,110.5,436.8,110.7"/>
	<path class="st0" d="M474.7,118.1c0-2.2-0.1-3.7-0.2-4.5c-0.2-0.8-0.5-1.4-0.9-1.6c-0.5-0.2-1.3-0.4-2.5-0.4
		c-1.2,0-2.1,0.2-2.6,0.5c-0.5,0.4-0.9,1-1.1,1.9c-0.2,0.9-0.3,2.3-0.3,4.2l0,15.3l-8.5,0l0.1-29.4l8.1,0l0.2,3.5l0.5,0
		c1.4-2.6,4-4,7.8-3.9c2.3,0,4,0.4,5.2,1.3s2,2.1,2.3,3.7c0.4,1.6,0.6,3.8,0.6,6.5l-0.1,18.4l-8.5,0L474.7,118.1z"/>
	<path class="st0" d="M529.2,121.4l-16.1-0.1c0,1.8,0.1,3.1,0.4,3.9c0.3,0.7,0.8,1.2,1.7,1.4c0.9,0.2,2.5,0.4,4.8,0.4
		c2.5,0,5.2-0.1,8.1-0.4l0,6.6c-1.1,0.3-2.6,0.5-4.5,0.7c-1.9,0.2-3.7,0.3-5.6,0.3c-4.1,0-7.1-0.5-9-1.5c-1.9-1-3.1-2.5-3.6-4.5
		c-0.5-2-0.8-5.1-0.8-9.2c0-4,0.3-7.1,0.8-9.1c0.5-2,1.7-3.6,3.5-4.6c1.8-1,4.6-1.5,8.4-1.5c3.8,0,6.5,0.5,8.2,1.5
		c1.7,1,2.7,2.5,3.1,4.4c0.4,1.9,0.6,5.1,0.6,9.4L529.2,121.4z M514.5,111c-0.6,0.3-0.9,0.8-1.1,1.6c-0.2,0.8-0.3,2.1-0.3,3.9l8.1,0
		c0-1.8-0.1-3.2-0.3-4c-0.2-0.8-0.6-1.3-1.1-1.6c-0.5-0.3-1.4-0.4-2.6-0.4C516,110.6,515.1,110.7,514.5,111"/>
	<path class="st0" d="M538.9,132.9c-1.2-0.9-2.2-2.4-2.8-4.6c-0.6-2.2-0.9-5.2-0.9-9.1c0-4,0.3-7,0.9-9.2c0.6-2.2,1.5-3.7,2.8-4.6
		c1.3-0.9,3-1.3,5.2-1.3c1.8,0,3.3,0.3,4.5,0.7c1.2,0.5,2.2,1.4,3,2.8l0.4,0l0.1-16.5l8.5,0l-0.1,42.8l-8.1,0l-0.2-3.5l-0.4,0
		c-0.7,1.5-1.8,2.5-3.1,3.1c-1.3,0.6-2.8,0.8-4.6,0.8C541.9,134.3,540.2,133.8,538.9,132.9 M550.3,126c0.5-0.3,0.9-0.8,1.2-1.5
		c0.2-0.6,0.3-1.3,0.4-2.1c0.1-0.8,0.1-1.9,0.1-3.2c0-2.5-0.1-4.3-0.4-5.2c-0.2-0.8-0.6-1.4-1.2-1.6c-0.5-0.3-1.4-0.4-2.5-0.4
		c-1.3,0-2.3,0.1-2.8,0.4c-0.5,0.3-0.9,0.9-1.1,1.8c-0.2,0.9-0.3,2.6-0.3,5c0,2.4,0.1,4.1,0.2,5c0.2,0.9,0.5,1.6,1.1,1.8
		c0.5,0.3,1.5,0.4,2.8,0.4C549,126.5,549.8,126.3,550.3,126"/>
	<path class="st0" d="M584.6,130.5l-0.5,0c-1.4,2.6-4,4-7.8,3.9c-2.3,0-4-0.4-5.2-1.3c-1.2-0.9-2-2.1-2.3-3.7
		c-0.4-1.6-0.6-3.8-0.6-6.5l0.1-18.4l8.5,0l0,15.5c0,2.2,0.1,3.7,0.2,4.5c0.2,0.8,0.5,1.4,0.9,1.6c0.5,0.2,1.3,0.4,2.5,0.4
		c1.2,0,2.1-0.2,2.6-0.5c0.5-0.4,0.9-1,1.1-1.9c0.2-0.9,0.3-2.3,0.3-4.2l0-15.3l8.5,0l-0.1,29.4l-8.1,0L584.6,130.5z"/>
	<path class="st0" d="M611.5,134.5c-3.6,0-6.2-0.6-7.8-1.7c-1.7-1.1-2.7-2.7-3.2-4.8c-0.5-2-0.7-4.9-0.7-8.7c0-3.7,0.3-6.5,0.7-8.6
		c0.5-2.1,1.6-3.7,3.2-4.8c1.7-1.2,4.3-1.7,7.7-1.7c3,0,5.7,0.3,8,1l0,6.7c-1.9-0.3-3.8-0.5-5.8-0.5c-1.7,0-2.8,0.2-3.6,0.6
		c-0.7,0.4-1.2,1.1-1.4,2.2s-0.4,2.8-0.4,5.2c0,2.4,0.1,4.2,0.3,5.2c0.2,1.1,0.7,1.8,1.4,2.2c0.7,0.4,1.9,0.6,3.6,0.6
		c1.9,0,3.8-0.1,5.9-0.4l0,6.7C617,134.2,614.3,134.5,611.5,134.5"/>
	<path class="st0" d="M627,132.5c-1.3-1.4-1.9-3.7-1.9-6.8c0-2.3,0.3-4.1,0.8-5.4c0.5-1.3,1.4-2.2,2.6-2.8c1.2-0.6,3-0.9,5.3-0.8
		c1.7,0,4.2,0.1,7.4,0.3l0-1c0-1.5-0.1-2.5-0.4-3.1c-0.3-0.6-0.9-1-1.7-1.1c-0.8-0.2-2.3-0.2-4.4-0.2c-2.6,0-5.3,0.1-7.9,0.4l0-6.7
		c3.3-0.6,6.8-1,10.6-0.9c3.7,0,6.4,0.4,8.2,1.3c1.7,0.9,2.9,2.1,3.4,3.8c0.5,1.7,0.8,4,0.8,7.2l-0.1,17.7l-8.1,0l-0.2-3.4l-0.4,0
		c-0.9,1.6-2,2.6-3.3,3.1c-1.3,0.5-2.9,0.7-4.7,0.7C630.2,134.6,628.3,133.9,627,132.5 M639.2,127.5c0.6-0.2,1-0.6,1.3-1.2
		c0.4-0.7,0.6-1.9,0.6-3.6l0-1.2l-4.8,0c-1,0-1.6,0.1-2.1,0.2c-0.4,0.2-0.7,0.5-0.9,0.9c-0.2,0.4-0.2,1.2-0.2,2.2
		c0,0.8,0.1,1.5,0.3,1.9c0.2,0.4,0.5,0.7,1,0.9c0.5,0.2,1.3,0.2,2.5,0.2C637.9,127.9,638.7,127.8,639.2,127.5"/>
	<path class="st0" d="M668.2,134.7c-3.6,0-6.2-0.6-7.8-1.7c-1.7-1.1-2.7-2.7-3.2-4.8c-0.5-2-0.7-4.9-0.7-8.7c0-3.7,0.3-6.5,0.7-8.6
		c0.5-2.1,1.6-3.7,3.2-4.8c1.7-1.2,4.3-1.7,7.7-1.7c3,0,5.7,0.3,8,1l0,6.7c-1.9-0.3-3.8-0.5-5.8-0.5c-1.7,0-2.8,0.2-3.6,0.6
		c-0.7,0.4-1.2,1.1-1.4,2.2c-0.2,1-0.4,2.8-0.4,5.2c0,2.4,0.1,4.2,0.3,5.2c0.2,1.1,0.7,1.8,1.4,2.2c0.7,0.4,1.9,0.6,3.6,0.6
		c1.9,0,3.8-0.1,5.9-0.4l0,6.7C673.8,134.4,671.1,134.8,668.2,134.7"/>
	<path class="st0" d="M683.1,134.3l0.1-29.4l8.6,0l-0.1,29.4L683.1,134.3z M683.1,99.1l0-7.6l8.7,0l0,7.6L683.1,99.1z"/>
	<path class="st0" d="M702.6,133.6c-1.8-0.9-2.9-2.3-3.3-4.3c-0.5-2-0.7-5.2-0.7-9.6c0-4.5,0.3-7.7,0.7-9.6c0.5-2,1.6-3.4,3.4-4.2
		c1.8-0.9,4.7-1.3,8.7-1.3c4,0,6.9,0.5,8.7,1.3s2.9,2.3,3.3,4.2c0.5,2,0.7,5.2,0.7,9.6c0,4.4-0.3,7.6-0.7,9.6
		c-0.5,2-1.6,3.4-3.4,4.3c-1.8,0.9-4.7,1.3-8.7,1.3C707.3,134.9,704.4,134.4,702.6,133.6 M714.4,127.2c0.5-0.3,0.9-1,1-1.9
		c0.1-1,0.2-2.8,0.2-5.5c0-2.8,0-4.6-0.2-5.6c-0.1-1-0.5-1.6-1-1.9c-0.5-0.3-1.6-0.5-3-0.5c-1.5,0-2.5,0.1-3,0.5
		c-0.5,0.3-0.9,0.9-1,1.9c-0.1,1-0.2,2.8-0.2,5.6c0,2.7,0,4.6,0.2,5.5c0.1,1,0.5,1.6,1,1.9c0.5,0.3,1.6,0.5,3,0.5
		C712.8,127.7,713.8,127.5,714.4,127.2 M707.9,100v-0.3l4.8-8.1l8.2,0l0,0.3l-7,8.1L707.9,100z"/>
	<path class="st0" d="M747.1,119.1c0-2.2-0.1-3.7-0.2-4.5c-0.2-0.8-0.5-1.4-0.9-1.6c-0.5-0.2-1.3-0.3-2.5-0.4
		c-1.2,0-2.1,0.2-2.6,0.5s-0.9,1-1.1,1.9c-0.2,0.9-0.3,2.3-0.3,4.2l0,15.3l-8.5,0l0.1-29.4l8.1,0l0.2,3.5l0.5,0c1.4-2.6,4-4,7.8-3.9
		c2.3,0,4,0.4,5.2,1.3c1.2,0.9,2,2.1,2.3,3.7c0.4,1.6,0.6,3.8,0.6,6.5l-0.1,18.4l-8.5,0L747.1,119.1z"/>
	<path class="st0" d="M597.5,75.7c-1.9,0-3.3-0.1-4.1-0.2c-0.9-0.2-1.5-0.5-1.8-0.9c-0.3-0.5-0.4-1.3-0.4-2.5v-12h6.3v-7.2h-6.3
		v-8.5h-9.3v8.5h-5.3v7.2h5.3v10.7c0,3.8,0.4,6.5,1.3,8c0.8,1.6,2.3,2.5,4.4,2.9c2,0.4,5.3,0.6,10,0.6V75.7z"/>
</g>
</svg>
